<?xml version="1.0" standalone="no"?>
<!DOCTYPE svg PUBLIC "-//W3C//DTD SVG 1.1//EN" "http://www.w3.org/Graphics/SVG/1.1/DTD/svg11.dtd" >
<svg xmlns="http://www.w3.org/2000/svg">
<metadata></metadata>
<defs>
<font id="newjuneboldregular" horiz-adv-x="1208" >
<font-face units-per-em="2048" ascent="1638" descent="-410" />
<missing-glyph horiz-adv-x="530" />
<glyph horiz-adv-x="0" />
<glyph horiz-adv-x="0" />
<glyph horiz-adv-x="682" />
<glyph unicode="&#xd;" horiz-adv-x="530" />
<glyph unicode=" "  horiz-adv-x="530" />
<glyph unicode="&#x09;" horiz-adv-x="530" />
<glyph unicode="&#xa0;" horiz-adv-x="530" />
<glyph unicode="!" horiz-adv-x="495" d="M88 133q0 71 43 112.5t119 41.5t119 -41.5t43 -112.5t-43 -111t-119 -40t-119 40t-43 111zM109 459v1065h280v-1016z" />
<glyph unicode="&#x22;" horiz-adv-x="858" d="M100 1563h269l-25 -480h-219zM489 1563h269l-23 -480h-219z" />
<glyph unicode="#" horiz-adv-x="1445" d="M53 397l33 217h238l53 275h-246l33 215h254l80 420h235l-80 -420h262l80 420h236l-80 -420h235l-32 -215h-240l-51 -275h244l-33 -217h-252l-74 -397h-237l75 397h-266l-78 -397h-239l78 397h-228zM559 614h268l52 275h-267z" />
<glyph unicode="$" d="M82 90l49 270l113 -41q206 -75 393 -75q91 0 150 47.5t59 134.5q0 84 -45 121t-162 65l-182 43q-177 41 -275 146t-98 274q0 103 32 186t88.5 137.5t129.5 86t160 39.5v252h233v-252q129 -13 289 -64l119 -37l-50 -268l-116 39q-232 76 -383 76q-96 0 -152.5 -46.5 t-56.5 -133.5q0 -70 39 -112.5t123 -62.5l225 -53q373 -88 373 -422q0 -102 -32 -184.5t-88.5 -136t-129.5 -85.5t-160 -42v-256h-233v256q-121 7 -295 61z" />
<glyph unicode="%" horiz-adv-x="1873" d="M72 1159q0 184 105.5 290.5t285.5 106.5q181 0 284 -106t103 -291q0 -187 -105 -294t-286 -107t-284 107t-103 294zM219 0l1143 1524h280l-1140 -1524h-283zM309 1159q0 -101 40.5 -157t113.5 -56q74 0 112.5 54.5t38.5 158.5q0 99 -40.5 154t-114.5 55q-73 0 -111.5 -55 t-38.5 -154zM1024 369q0 185 105 291t286 106q183 0 286 -105.5t103 -291.5q0 -187 -105 -293.5t-286 -106.5q-182 0 -285.5 106.5t-103.5 293.5zM1264 369q0 -101 39 -157t112 -56q74 0 113 55.5t39 157.5q0 100 -40.5 155.5t-113.5 55.5t-111 -55.5t-38 -155.5z" />
<glyph unicode="&#x26;" horiz-adv-x="1509" d="M92 401q0 274 279 404q-79 91 -116.5 167.5t-37.5 180.5q0 127 61 218t163 134t233 43q201 0 318.5 -95.5t117.5 -272.5q0 -283 -352 -437l291 -311q41 44 67.5 140t26.5 200v156h250v-160q0 -151 -47 -289.5t-127 -226.5l219 -252h-340l-82 96q-49 -44 -163 -81.5 t-259 -37.5q-240 0 -371 120t-131 304zM375 406q0 -90 62.5 -148.5t185.5 -58.5q77 0 141 22t96 49l-334 357q-151 -61 -151 -221zM475 1153q0 -62 31 -116t102 -130q128 52 187 112t59 152q0 74 -46.5 120t-135.5 46q-97 0 -147 -49.5t-50 -134.5z" />
<glyph unicode="'" horiz-adv-x="493" d="M100 1563h293l-24 -480h-244z" />
<glyph unicode="(" horiz-adv-x="698" d="M78 696q0 149 18 270.5t48 206.5t74.5 149t92 101.5t106 61t110.5 31.5t112 8v-213q-37 -3 -67.5 -13t-72.5 -48t-70 -100t-48.5 -179t-20.5 -275q0 -120 10.5 -217t27 -161.5t41.5 -112.5t48.5 -74t53.5 -42.5t51.5 -21t46.5 -6.5v-213q-54 0 -104 8.5t-108 33 t-106.5 63.5t-94.5 105t-77.5 152.5t-51 210.5t-19.5 275z" />
<glyph unicode=")" horiz-adv-x="698" d="M63 61q25 2 46.5 6.5t51 21t53 42.5t48 74t41 112.5t27 161.5t10.5 217q0 114 -10.5 207.5t-27 155.5t-41 108.5t-48 72.5t-53 42t-51 21.5t-46.5 7.5v213q60 0 112 -8t111 -31.5t106 -61t92 -101.5t75 -149t48 -206.5t18 -270.5q0 -151 -19.5 -275t-51.5 -210.5 t-78 -152.5t-94.5 -105t-106.5 -63.5t-108 -33t-104 -8.5v213z" />
<glyph unicode="*" horiz-adv-x="1128" d="M76 1126l76 242l301 -123l-27 316h276l-26 -318l301 123l76 -242l-326 -77l217 -254l-221 -148l-158 279l-159 -277l-220 148l215 254z" />
<glyph unicode="+" d="M100 489v224h375v405h248v-405h383v-224h-383v-405h-248v405h-375z" />
<glyph unicode="," horiz-adv-x="495" d="M66 -37l77 322h293l-108 -377q-29 -94 -138 -94q-76 0 -108 42t-16 107z" />
<glyph unicode="-" horiz-adv-x="876" d="M92 553v225h692v-225h-692z" />
<glyph unicode="." horiz-adv-x="495" d="M86 139q0 72 44 115t120 43q75 0 118.5 -43t43.5 -115q0 -74 -43.5 -116.5t-118.5 -42.5q-76 0 -120 42.5t-44 116.5z" />
<glyph unicode="/" horiz-adv-x="878" d="M16 0l598 1524h248l-590 -1524h-256z" />
<glyph unicode="0" d="M102 483v549q0 241 130.5 374.5t373.5 133.5q246 0 374 -132t128 -376v-543q0 -245 -126.5 -377t-371.5 -132q-246 0 -377 131t-131 372zM391 481q0 -262 215 -262t215 262v557q0 260 -215 260t-215 -260v-557z" />
<glyph unicode="1" d="M96 0v233h412v1047h-59q-54 0 -123 -12.5t-111 -38.5l-47 233q64 33 165.5 47.5t184.5 14.5h100q93 0 143 -47.5t50 -133.5v-1110h334v-233h-1049z" />
<glyph unicode="2" d="M88 143q0 90 51 138l465 432q111 103 158.5 181.5t48.5 178.5q0 110 -67 163.5t-181 53.5q-120 0 -330 -65l-98 -31l-41 240l103 32q229 72 405 72q109 0 198 -26t157.5 -80t106.5 -143.5t38 -209.5q0 -131 -61 -252.5t-207 -255.5l-375 -344h647v-227h-881 q-66 0 -101.5 38.5t-35.5 104.5z" />
<glyph unicode="3" d="M66 90l45 238l104 -33q221 -70 369 -70q127 0 193.5 51t66.5 142q0 85 -66 160l-69 75h-301v221h294l56 74q53 68 53 160q0 182 -240 182q-123 0 -331 -63l-99 -31l-41 240l103 30q229 72 403 72q239 0 367.5 -101.5t128.5 -303.5q0 -141 -98 -275l-64 -84l74 -78 q63 -65 92 -133t29 -153q0 -204 -141.5 -315t-389.5 -111q-186 0 -432 73z" />
<glyph unicode="4" d="M43 399q0 62 45 129l553 895q66 115 201 115q186 0 186 -172v-883h152v-227h-152v-256h-285v256h-559q-70 0 -105.5 38.5t-35.5 104.5zM360 483h383v619z" />
<glyph unicode="5" d="M90 86l43 236l103 -31q213 -66 339 -66q136 0 204.5 72.5t68.5 200.5q0 131 -71.5 198.5t-203.5 67.5q-108 0 -286 -49l-127 -35v844h917v-248h-671v-318q125 37 241 37q239 0 364.5 -123.5t125.5 -371.5q0 -246 -143 -380t-398 -134q-196 0 -403 67z" />
<glyph unicode="6" d="M94 508v543q0 222 141.5 353.5t378.5 131.5q182 0 392 -68l102 -32l-45 -240l-98 31q-202 63 -332 63q-248 0 -248 -239v-101q137 45 264 45q245 0 367.5 -124.5t122.5 -364.5q0 -231 -136.5 -373.5t-386.5 -142.5q-246 0 -384 140t-138 378zM385 510q0 -135 60 -209 t176 -74q108 0 166.5 70t58.5 197q0 126 -58 195t-192 69q-21 0 -50 -4t-47.5 -8t-60 -13t-53.5 -12v-211z" />
<glyph unicode="7" d="M100 1280v244h887q78 0 118 -39.5t40 -108.5q0 -57 -35 -145l-506 -1231h-319l540 1280h-725z" />
<glyph unicode="8" d="M68 406q0 164 118 288l72 78l-61 84q-91 129 -91 274q0 193 134 301.5t364 108.5q231 0 365.5 -108.5t134.5 -301.5q0 -148 -92 -274l-62 -84l72 -78q62 -66 90.5 -135t28.5 -153q0 -203 -141 -313.5t-392 -110.5t-395.5 111t-144.5 313zM354 410q0 -90 66 -144.5 t186 -54.5t185 54t65 145q0 86 -68 163l-67 76h-234l-67 -76q-66 -72 -66 -163zM381 1112q0 -78 57 -164l51 -76h232l51 76q57 86 57 164q0 85 -57.5 136.5t-167.5 51.5q-109 0 -166 -51.5t-57 -136.5z" />
<glyph unicode="9" d="M72 1016q0 232 136.5 376t385.5 144q246 0 384 -141t138 -379v-543q0 -222 -141.5 -352.5t-378.5 -130.5q-190 0 -391 65l-103 33l45 240l99 -31q206 -64 332 -64q247 0 247 240v100q-137 -45 -264 -45q-245 0 -367 124t-122 364zM365 1030q0 -127 58 -195.5t191 -68.5 q59 0 211 37v211q0 135 -59.5 208.5t-175.5 73.5q-108 0 -166.5 -69.5t-58.5 -196.5z" />
<glyph unicode=":" horiz-adv-x="495" d="M86 139q0 72 44 115t120 43q75 0 118.5 -43t43.5 -115q0 -74 -43.5 -116.5t-118.5 -42.5q-76 0 -120 42.5t-44 116.5zM86 958q0 72 44 115t120 43q75 0 118.5 -43t43.5 -115t-43.5 -114.5t-118.5 -42.5q-76 0 -120 42.5t-44 114.5z" />
<glyph unicode=";" horiz-adv-x="495" d="M66 -37l77 322h293l-108 -377q-29 -94 -138 -94q-76 0 -108 42t-16 107zM102 958q0 72 44 115t120 43q75 0 118.5 -43t43.5 -115t-43.5 -114.5t-118.5 -42.5q-76 0 -120 42.5t-44 114.5z" />
<glyph unicode="&#x3c;" d="M92 604q0 142 127 187l899 331v-286l-731 -234l731 -233v-277l-895 326q-131 45 -131 186z" />
<glyph unicode="=" d="M100 319v218h1006v-218h-1006zM100 684v217h1006v-217h-1006z" />
<glyph unicode="&#x3e;" d="M90 92v277l731 233l-731 234v286l899 -331q127 -45 127 -187q0 -141 -131 -186z" />
<glyph unicode="?" horiz-adv-x="954" d="M53 1450l99 29q167 49 325 49q195 0 308.5 -96.5t113.5 -268.5q0 -102 -36 -184t-120 -164l-159 -158l-2 -149l-271 -49v135q0 73 14 115t62 90l139 141q52 52 73 93t22 100q0 157 -172 157q-124 0 -252 -39l-105 -30zM285 133q0 71 42.5 112.5t118.5 41.5t119 -41.5 t43 -112.5t-43 -111t-119 -40t-118.5 40t-42.5 111z" />
<glyph unicode="@" horiz-adv-x="1910" d="M172 717q0 234 107 423t296 295.5t422 106.5q217 0 387 -88t265.5 -249.5t95.5 -370.5q0 -114 -35.5 -211t-94.5 -161.5t-135.5 -101t-158.5 -36.5q-49 0 -108.5 20.5t-86.5 20.5q-36 0 -114 -16.5t-135 -16.5q-169 0 -255.5 95.5t-86.5 254.5q0 89 29 169t83 142 t138 98.5t186 36.5q59 0 157 -10l7 58h202l-92 -670q43 -29 84 -29q89 0 157 97.5t68 261.5q0 241 -151 382.5t-406 141.5q-185 0 -329 -84t-221.5 -230t-77.5 -329q0 -165 61.5 -292.5t183 -201t285.5 -73.5q89 0 235 37.5t220 37.5t137 -35l117 -67l-72 -143l-96 47 q-49 22 -99 22q-47 0 -115 -18t-155.5 -36t-181.5 -18q-166 0 -302.5 57t-226.5 157t-139 235t-49 291zM745 678q0 -83 38 -132.5t116 -49.5q15 0 32 2t30.5 4.5t40 7.5t45.5 8l59 438q-82 11 -135 11q-112 0 -169 -84.5t-57 -204.5z" />
<glyph unicode="A" horiz-adv-x="1470" d="M20 0l488 1384q54 156 237 156q182 0 234 -154l471 -1386h-340l-92 279h-567l-95 -279h-336zM516 524h438l-215 678z" />
<glyph unicode="B" horiz-adv-x="1427" d="M123 178v1168q0 84 50 131t140 47h527q216 0 332 -97.5t116 -291.5q0 -148 -96 -275l-64 -84l78 -78q135 -135 135 -297q0 -191 -127 -296t-366 -105h-533q-91 0 -141.5 47.5t-50.5 130.5zM451 240h360q99 0 152 46t53 126q0 82 -66 151l-80 84h-419v-407zM451 883h413 l60 84q49 68 49 151q0 78 -45 123t-140 45h-337v-403z" />
<glyph unicode="C" horiz-adv-x="1396" d="M86 760q0 190 53 338.5t149 243t225.5 143.5t285.5 49q178 0 420 -74l118 -37l-43 -270l-123 37q-208 63 -335 63q-194 0 -298 -122.5t-104 -370.5q0 -249 105 -370.5t299 -121.5q156 0 333 60l123 41l43 -273l-118 -37q-235 -73 -408 -73h-14q-159 0 -288 47.5 t-224 141.5t-147 243t-52 342z" />
<glyph unicode="D" horiz-adv-x="1513" d="M123 178v1165q0 84 51 132.5t141 48.5h396q329 0 521.5 -204t192.5 -562q0 -357 -195.5 -557.5t-524.5 -200.5h-390q-91 0 -141.5 47.5t-50.5 130.5zM457 258h241q190 0 294 129t104 371q0 237 -108.5 373.5t-301.5 136.5h-229v-1010z" />
<glyph unicode="E" horiz-adv-x="1286" d="M123 178v1165q0 84 51 132.5t141 48.5h879v-252h-737v-375h645v-242h-645v-405h741v-250h-883q-91 0 -141.5 47.5t-50.5 130.5z" />
<glyph unicode="F" horiz-adv-x="1234" d="M123 0v1343q0 84 51 132.5t141 48.5h859v-254h-715v-402h653v-243h-653v-625h-336z" />
<glyph unicode="G" horiz-adv-x="1517" d="M86 760q0 189 55 337t153.5 243t233 144.5t297.5 49.5q183 0 443 -76l123 -37l-48 -272l-135 39q-215 63 -354 63q-209 0 -322.5 -124.5t-113.5 -374.5q0 -257 116 -386.5t326 -129.5q120 0 236 22v303h-312v236h428q87 0 140 -50t53 -129v-321q0 -115 -33.5 -170 t-130.5 -82q-218 -59 -414 -59q-165 0 -300 48.5t-234 143t-153 243t-54 339.5z" />
<glyph unicode="H" horiz-adv-x="1480" d="M123 0v1524h334v-627h567v627h334v-1524h-334v647h-567v-647h-334z" />
<glyph unicode="I" horiz-adv-x="583" d="M123 0v1524h338v-1524h-338z" />
<glyph unicode="J" horiz-adv-x="907" d="M29 47l39 256q153 -39 219 -39q90 0 129 45.5t39 147.5v1067h336v-1094q0 -211 -118.5 -322.5t-328.5 -111.5q-128 0 -315 51z" />
<glyph unicode="K" horiz-adv-x="1427" d="M123 0v1524h330v-703l546 703h381l-428 -531l430 -993h-354l-319 727l-140 -168q-43 -52 -63 -80.5t-37.5 -78.5t-17.5 -109v-291h-328z" />
<glyph unicode="L" horiz-adv-x="1222" d="M123 178v1346h338v-1252h686v-272h-832q-91 0 -141.5 47.5t-50.5 130.5z" />
<glyph unicode="M" horiz-adv-x="1849" d="M123 0v1325q0 103 67 157t183 54q119 0 183 -52t95 -147l275 -874l286 874q31 97 91.5 148t179.5 51q115 0 179 -53.5t64 -157.5v-1325h-299v1110l-329 -999q-34 -121 -178 -121t-185 121l-323 1001v-1112h-289z" />
<glyph unicode="N" horiz-adv-x="1542" d="M123 0v1329q0 102 61.5 155.5t173.5 53.5q157 0 236 -141l532 -942v1069h293v-1329q0 -100 -62 -153.5t-173 -53.5q-152 0 -232 139l-538 944v-1071h-291z" />
<glyph unicode="O" horiz-adv-x="1650" d="M86 758q0 182 54 329t152 244.5t235 150t302 52.5q335 0 534.5 -205t199.5 -571q0 -184 -54 -331t-152 -244t-235 -148t-303 -51q-335 0 -534 204.5t-199 569.5zM424 758q0 -254 107 -392.5t298 -138.5q188 0 292 138t104 393q0 252 -107 390t-299 138 q-189 0 -292 -137.5t-103 -390.5z" />
<glyph unicode="P" horiz-adv-x="1343" d="M123 0v1343q0 84 51 132.5t141 48.5h459q224 0 359 -132t135 -356q0 -227 -139.5 -358t-374.5 -131h-303v-547h-328zM451 795h276q110 0 174 63.5t64 177.5q0 131 -74.5 186.5t-208.5 55.5h-231v-483z" />
<glyph unicode="Q" horiz-adv-x="1630" d="M86 758q0 182 54 329t151.5 244.5t234 150t301.5 52.5q336 0 534 -203t198 -569q0 -226 -92.5 -387.5t-249.5 -237.5q14 -6 39 -15t93 -23.5t126 -14.5h65v-242h-88q-81 0 -153.5 16.5t-126 39.5t-104 46t-110.5 39.5t-124 16.5q-165 0 -301 48t-236 140.5t-155.5 238 t-55.5 331.5zM424 758q0 -253 106.5 -387.5t298.5 -134.5q189 0 292.5 134t103.5 388q0 252 -107 390t-299 138q-189 0 -292 -137.5t-103 -390.5z" />
<glyph unicode="R" horiz-adv-x="1419" d="M123 0v1346q0 80 51.5 129t138.5 49h525q223 0 348 -114.5t125 -326.5q0 -162 -125 -315l-94 -115l290 -653h-352l-237 561h-336v-561h-334zM457 803h395l61 82q76 102 76 190q0 97 -50 152t-153 55h-329v-479z" />
<glyph unicode="S" horiz-adv-x="1337" d="M92 104l53 279l129 -45q259 -90 437 -90q95 0 158 45t63 135q0 69 -41 110.5t-131 61.5l-266 57q-197 43 -297.5 144t-100.5 276q0 114 41.5 203t115 143.5t169.5 82.5t209 28q230 0 489 -82l129 -41l-57 -281l-129 48q-252 90 -428 90q-98 0 -158.5 -45t-60.5 -136 q0 -69 40 -109t132 -60l264 -58q199 -43 298 -141.5t99 -276.5q0 -113 -42 -202.5t-115.5 -145t-169 -84t-207.5 -28.5q-244 0 -494 79z" />
<glyph unicode="T" horiz-adv-x="1337" d="M63 1266v258h1215v-258h-438v-1266h-338v1266h-439z" />
<glyph unicode="U" horiz-adv-x="1492" d="M113 557v967h336v-977q0 -145 74.5 -220t221.5 -75t223 75t76 220v977h336v-967q0 -276 -164.5 -430t-470.5 -154t-469 153t-163 431z" />
<glyph unicode="V" horiz-adv-x="1437" d="M20 1524h342l357 -1168l362 1168h336l-481 -1391q-50 -145 -227 -145q-174 0 -224 145z" />
<glyph unicode="W" horiz-adv-x="1970" d="M31 1524h321l176 -1159l283 1040q15 58 62 88.5t118 30.5q147 0 178 -119l277 -1043l180 1162h313l-260 -1381q-18 -78 -73 -119.5t-146 -41.5q-187 0 -227 149l-246 924l-258 -924q-41 -147 -225 -147q-93 0 -148 42t-69 119z" />
<glyph unicode="X" horiz-adv-x="1501" d="M55 0l490 766l-479 758h370l320 -529l311 529h365l-469 -750l483 -774h-371l-323 549l-332 -549h-365z" />
<glyph unicode="Y" horiz-adv-x="1458" d="M14 1524h367l356 -606l342 606h363l-541 -891v-633h-338v629z" />
<glyph unicode="Z" horiz-adv-x="1366" d="M82 162q0 72 53 141l733 969h-749v252h995q80 0 120 -44.5t40 -119.5q0 -73 -53 -141l-727 -969h778v-250h-1030q-79 0 -119.5 44t-40.5 118z" />
<glyph unicode="[" horiz-adv-x="698" d="M143 -133v1657h494v-213h-229v-1233h229v-211h-494z" />
<glyph unicode="\" horiz-adv-x="878" d="M16 1524h248l598 -1524h-258z" />
<glyph unicode="]" horiz-adv-x="698" d="M63 78h230v1233h-230v213h494v-1657h-494v211z" />
<glyph unicode="^" d="M88 88l332 905q42 129 180 129q133 0 182 -127l336 -907h-284l-234 725l-233 -725h-279z" />
<glyph unicode="_" horiz-adv-x="1128" d="M-27 -164h1174v-194h-1174v194z" />
<glyph unicode="`" horiz-adv-x="1110" d="M279 1563h364l152 -142q41 -39 41 -88q0 -36 -27 -64t-76 -28q-60 0 -115 45z" />
<glyph unicode="a" horiz-adv-x="1236" d="M82 313q0 85 29 148.5t76 101.5t118 61.5t144 31.5t165 8h189v75q0 168 -199 168q-141 0 -334 -59l-112 -35l-37 221l104 33q222 70 408 70q98 0 175.5 -21t137.5 -66t92.5 -121t32.5 -179v-517l125 -75l-104 -185l-99 56q-43 25 -97 25q-32 0 -67 -9l-67 -16 q-164 -41 -287 -41q-185 0 -289 86t-104 239zM358 324q0 -66 44.5 -100t125.5 -34q84 0 191 29l86 23v229h-240q-207 0 -207 -147z" />
<glyph unicode="b" horiz-adv-x="1228" d="M117 217v1317q149 25 280 51v-500q137 45 256 45q494 0 494 -567q0 -265 -143.5 -419t-395.5 -154q-174 0 -352 51q-73 22 -106 63.5t-33 112.5zM397 244q131 -29 199 -29q140 0 206 90t66 254q0 168 -62.5 255t-199.5 87q-80 0 -209 -39v-618z" />
<glyph unicode="c" horiz-adv-x="1087" d="M82 561q0 276 143.5 426t384.5 150q135 0 322 -56l94 -28l-37 -232l-90 27q-172 51 -258 51q-270 0 -270 -338t270 -338q86 0 258 51l90 27l37 -231l-94 -29q-184 -55 -322 -55q-243 0 -385.5 146t-142.5 429z" />
<glyph unicode="d" horiz-adv-x="1228" d="M82 557q0 274 128.5 423.5t375.5 149.5q90 0 245 -45v449q160 28 281 51v-1368q0 -72 -33.5 -114t-105.5 -62q-180 -51 -357 -51q-254 0 -394 148.5t-140 418.5zM360 559q0 -344 273 -344q74 0 198 29v618q-132 36 -208 39q-137 0 -200 -87t-63 -255z" />
<glyph unicode="e" horiz-adv-x="1198" d="M82 559q0 146 42.5 259t116 182t168 104t203.5 35q241 0 377.5 -138.5t136.5 -412.5q0 -61 -28.5 -90t-89.5 -29h-650q10 -127 91 -190.5t213 -63.5q138 0 305 51l108 35l37 -213l-108 -35q-204 -65 -363 -65q-259 0 -409 146t-150 425zM356 662h496q0 120 -62 196 t-186 76q-110 0 -175 -72.5t-73 -199.5z" />
<glyph unicode="f" horiz-adv-x="833" d="M35 897v217h162v84q0 183 100 276t283 93q105 0 274 -45l-35 -213q-128 32 -194 32q-83 0 -117.5 -37t-34.5 -128v-62h326v-217h-326v-897h-276v897h-162z" />
<glyph unicode="g" horiz-adv-x="1243" d="M82 760q0 179 131 268.5t362 89.5h113q123 0 205 23l264 76l51 -207l-202 -58q3 -2 8.5 -7t19 -22.5t24 -37.5t19 -54t8.5 -71q0 -171 -128 -257.5t-359 -86.5q-27 0 -51 2t-35 4l-10 2q16 -20 16 -64q0 -51 -35 -92h322q190 0 285.5 -74.5t95.5 -207.5 q0 -170 -145.5 -261.5t-434.5 -91.5q-112 0 -203 17.5t-162.5 54t-111 99t-39.5 145.5q0 115 78 213l94 119q37 48 37 94q0 34 -14.5 58t-51.5 50q-30 22 -51.5 42.5t-47 54.5t-39 79.5t-13.5 100.5zM342 -45q0 -135 274 -135q320 0 320 155q0 46 -37.5 72.5t-112.5 26.5 h-401q-43 -46 -43 -119zM346 760q0 -172 236 -172q109 0 173 42t64 130q0 168 -237 168q-236 0 -236 -168z" />
<glyph unicode="h" horiz-adv-x="1185" d="M117 0v1534l284 51v-502q150 47 261 47q415 0 415 -401v-729h-280v707q0 81 -44.5 131.5t-140.5 50.5q-74 0 -211 -37v-852h-284z" />
<glyph unicode="i" horiz-adv-x="528" d="M102 1423q0 70 43 111t119 41t119 -41t43 -111q0 -71 -43 -112t-119 -41t-119 41t-43 112zM125 0v1124h278v-1124h-278z" />
<glyph unicode="j" horiz-adv-x="540" d="M-16 -162q84 1 118.5 42t34.5 128v1116h279v-1122q0 -183 -109.5 -278t-322.5 -95v209zM115 1423q0 70 42.5 111t118.5 41t119 -41t43 -111q0 -71 -43 -112t-119 -41t-118.5 41t-42.5 112z" />
<glyph unicode="k" horiz-adv-x="1181" d="M117 0v1534l278 51v-942l410 481h340l-332 -381l342 -743h-321l-240 512l-90 -98q-41 -45 -58.5 -68t-34.5 -70q-16 -44 -16 -98v-6v-172h-278z" />
<glyph unicode="l" horiz-adv-x="524" d="M117 0v1532l289 53v-1585h-289z" />
<glyph unicode="m" horiz-adv-x="1785" d="M117 0v905q0 71 35 112t108 64q173 54 338 54q196 0 297 -84q187 84 356 84q214 0 315 -104t101 -290v-741h-278v717q0 81 -40.5 128.5t-127.5 47.5q-42 0 -85 -8.5t-60.5 -14.5t-61.5 -22q20 -54 20 -117v-731h-278v717q0 84 -39 130t-131 46q-87 0 -189 -33v-860h-280z " />
<glyph unicode="n" horiz-adv-x="1200" d="M117 0v905q0 72 35.5 113.5t107.5 62.5q196 54 365 54q235 0 345.5 -108t110.5 -296v-731h-280v707q0 186 -191 186q-85 0 -209 -33v-860h-284z" />
<glyph unicode="o" horiz-adv-x="1263" d="M82 561q0 273 149 424.5t404 151.5q256 0 401.5 -151t145.5 -425q0 -272 -149 -422.5t-404 -150.5q-257 0 -402 150.5t-145 422.5zM369 561q0 -179 68 -271.5t198 -92.5q129 0 195.5 92.5t66.5 271.5q0 177 -69.5 271t-198.5 94t-194.5 -94t-65.5 -271z" />
<glyph unicode="p" horiz-adv-x="1228" d="M117 -381v1286q0 71 33 112.5t106 63.5q191 54 356 54q253 0 394 -149.5t141 -418.5q0 -274 -128.5 -423.5t-375.5 -149.5q-103 0 -246 45v-369zM397 260q137 -37 209 -37q137 0 199.5 86t62.5 254q0 342 -272 342q-23 0 -42 -1t-42.5 -4.5t-33.5 -5t-41.5 -7.5t-39.5 -8 v-619z" />
<glyph unicode="q" horiz-adv-x="1228" d="M82 561q0 264 143.5 419t395.5 155q164 0 352 -54q73 -22 106 -63.5t33 -112.5v-1237l-281 -51v422q-137 -45 -256 -45q-493 0 -493 567zM360 563q0 -168 63 -254t200 -86q71 0 208 37v619q-118 26 -198 26q-273 0 -273 -342z" />
<glyph unicode="r" horiz-adv-x="784" d="M117 0v901q0 73 35 115t108 63q109 30 218.5 42t275.5 12v-234q-219 0 -359 -39v-860h-278z" />
<glyph unicode="s" horiz-adv-x="1126" d="M92 82l41 223l107 -35q208 -67 354 -67q72 0 119 29.5t47 91.5q0 94 -139 114l-207 35q-318 51 -318 313q0 114 59 195t155 118.5t220 37.5q190 0 400 -64l104 -33l-41 -225l-108 35q-218 70 -353 70q-73 0 -119 -30t-46 -91q0 -48 32.5 -76.5t106.5 -40.5l205 -33 q319 -51 319 -311q0 -170 -121 -261t-311 -91q-194 0 -401 63z" />
<glyph unicode="t" horiz-adv-x="892" d="M31 897v217h157v240l277 51v-291h342v-217h-342v-514q0 -172 151 -172q59 0 191 33l35 -213q-162 -43 -275 -43q-379 0 -379 415v494h-157z" />
<glyph unicode="u" horiz-adv-x="1200" d="M117 391v733h280v-706q0 -85 45.5 -137t145.5 -52q85 0 209 33v862h284v-905q0 -74 -35.5 -116.5t-107.5 -61.5q-183 -51 -363 -51q-235 0 -346.5 108t-111.5 293z" />
<glyph unicode="v" horiz-adv-x="1165" d="M31 1124h305l244 -825l254 825h301l-357 -1015q-19 -60 -75.5 -96t-131.5 -36q-157 0 -202 132z" />
<glyph unicode="w" horiz-adv-x="1675" d="M45 1124h293l131 -815l217 721q29 100 156 100q126 0 153 -100l213 -723l138 817h282l-215 -1001q-14 -68 -66 -107t-128 -39q-93 0 -138 34t-67 106l-176 585l-191 -591q-43 -131 -201 -131q-168 0 -196 143z" />
<glyph unicode="x" horiz-adv-x="1196" d="M41 0l377 563l-369 561h328l225 -358l213 358h326l-357 -549l375 -575h-330l-231 373l-233 -373h-324z" />
<glyph unicode="y" horiz-adv-x="1165" d="M35 1124h313l264 -802l230 802h297l-385 -1153q-30 -89 -63 -149.5t-79.5 -106t-109.5 -67t-148 -21.5q-111 0 -262 45l35 213q129 -37 197 -37q65 0 94 25.5t43 73.5l14 47z" />
<glyph unicode="z" horiz-adv-x="1126" d="M82 143q0 75 57 142l549 626h-584v213h803q70 0 106 -39.5t36 -105.5q0 -70 -52 -131l-553 -637h600v-211h-821q-70 0 -105.5 38.5t-35.5 104.5z" />
<glyph unicode="{" horiz-adv-x="692" d="M102 608v170q168 0 168 101q0 31 -16 75.5t-36 84.5t-36 97.5t-16 110.5q0 131 85 204t238 73h142v-215h-90q-121 0 -121 -117q0 -60 47 -171.5t47 -168.5q0 -109 -94 -160q94 -51 94 -160q0 -56 -47 -169t-47 -173q0 -55 31 -84.5t90 -29.5h90v-213h-142 q-153 0 -238 72.5t-85 201.5q0 56 16 114t36 98t36 84t16 75q0 100 -168 100z" />
<glyph unicode="|" horiz-adv-x="542" d="M137 -369v1932h269v-1932h-269z" />
<glyph unicode="}" horiz-adv-x="692" d="M66 76h92q118 0 118 114q0 60 -47 173t-47 169q0 109 94 160q-94 51 -94 160q0 57 47 168.5t47 171.5q0 55 -30 86t-88 31h-92v215h141q155 0 239 -73t84 -204q0 -69 -26 -141t-52 -131t-26 -96q0 -101 170 -101v-170q-170 0 -170 -100q0 -38 26 -98t52 -132.5t26 -140.5 q0 -130 -84.5 -202t-238.5 -72h-141v213z" />
<glyph unicode="~" d="M57 549q57 148 150.5 217.5t204.5 69.5q107 0 202 -68l93 -66q47 -38 102 -38q47 0 86 36t76 123l174 -112q-57 -149 -149.5 -218t-202.5 -69t-205 68l-92 65q-48 39 -101 39q-49 0 -88 -35.5t-76 -122.5z" />
<glyph unicode="&#xa1;" horiz-adv-x="495" d="M88 1008q0 71 43 112t119 41t119 -41t43 -112t-43 -112.5t-119 -41.5t-119 41.5t-43 112.5zM111 -381v1014l280 49v-1063h-280z" />
<glyph unicode="&#xa2;" d="M115 561q0 236 106.5 379.5t292.5 181.5v267h236v-265q86 -8 215 -45l94 -26l-35 -232l-92 27q-166 49 -258 49q-271 0 -271 -336t273 -336q90 0 256 49l92 27l35 -231l-94 -27q-126 -36 -215 -47v-266h-236v270q-188 35 -293.5 176t-105.5 385z" />
<glyph unicode="&#xa3;" d="M53 109q0 50 26 81t81 31q116 0 167.5 59t51.5 150q0 55 -21 113h-256v186h160q-73 123 -104 201t-31 174q0 206 132.5 320t356.5 114q176 0 396 -70l102 -32l-41 -240l-98 33q-174 58 -324 61q-120 0 -177.5 -53t-57.5 -150q0 -76 25.5 -143.5t99.5 -212.5h331v-188 h-264q17 -66 17 -113q0 -116 -64 -205h219q41 0 75.5 12.5t61.5 49t27 94.5h215q0 -185 -94 -283t-281 -98h-624q-55 0 -81 30t-26 79z" />
<glyph unicode="&#xa4;" d="M53 514v188h140v125h-140v187h144q10 252 156 389t378 137q145 0 322 -55l94 -29l-37 -233l-96 28q-152 47 -254 47q-262 0 -271 -284h412v-187h-418v-125h418v-188h-414q4 -146 74.5 -217.5t198.5 -71.5q104 0 256 47l94 29l37 -233l-88 -27q-180 -55 -328 -55 q-233 0 -379 137.5t-155 390.5h-144z" />
<glyph unicode="&#xa5;" d="M31 1524h327l252 -602l244 602h324l-326 -633h278v-186h-360v-125h360v-189h-360v-391h-328v391h-362v189h362v125h-362v186h276z" />
<glyph unicode="&#xa7;" d="M86 643v408q0 223 142 354t384 131q179 0 389 -68l103 -32l-45 -240l-98 31q-202 63 -330 63q-256 0 -256 -239v-101q137 45 264 45q246 0 364.5 -121t118.5 -362v-410q0 -222 -142 -353.5t-382 -131.5q-181 0 -391 68l-103 32l46 240l98 -31q202 -63 332 -63 q256 0 256 237v101q-140 -45 -267 -45q-483 0 -483 487zM375 641q0 -126 56.5 -191t191.5 -65q72 0 213 37v92q0 124 -56.5 189t-191.5 65q-31 0 -64 -4.5t-52 -8.5t-53 -13t-44 -11v-90z" />
<glyph unicode="&#xa8;" horiz-adv-x="1171" d="M201 1423q0 70 41 111t112 41q72 0 113 -41.5t41 -110.5t-41 -110t-113 -41t-112.5 41t-40.5 110zM668 1423q0 70 41 111t112 41t112.5 -41.5t41.5 -110.5t-41 -110t-113 -41q-71 0 -112 41t-41 110z" />
<glyph unicode="&#xa9;" horiz-adv-x="1910" d="M152 752q0 172 63.5 322t171.5 253.5t255.5 163t311.5 59.5q163 0 309.5 -58.5t255 -161.5t172.5 -253.5t64 -324.5q0 -171 -64 -321t-172 -255.5t-255.5 -166t-309.5 -60.5q-164 0 -311.5 60.5t-255.5 166t-171.5 255.5t-63.5 321zM346 752q0 -135 47 -251.5t128 -197 t193 -126.5t240 -46q168 0 306 78t218.5 220.5t80.5 322.5q0 184 -81 326t-218 217t-306 75q-172 0 -310 -76t-218 -217.5t-80 -324.5zM555 750q0 206 109.5 316t293.5 110q105 0 242 -39l72 -23l-29 -174l-69 21q-129 34 -193 34q-207 0 -207 -245q0 -246 207 -246 q52 0 193 37l69 20l29 -174l-72 -20q-134 -41 -242 -41q-185 0 -294 107.5t-109 316.5z" />
<glyph unicode="&#xaa;" d="M190 909q0 273 369 273h176v45q0 67 -36 95t-103 28q-113 0 -256 -41l-92 -27l-33 176q250 80 403 80q154 0 244 -72.5t90 -230.5v-393l92 -54l-81 -151l-82 43q-50 24 -133 8l-43 -10q-120 -29 -211 -29q-143 0 -223.5 70.5t-80.5 189.5zM416 920q0 -105 121 -105 q45 0 141 21l57 12v174h-172q-74 0 -110.5 -23t-36.5 -79z" />
<glyph unicode="&#xab;" horiz-adv-x="1187" d="M76 578q0 62 51 116l270 279h289l-383 -395l383 -398h-289l-270 277q-51 54 -51 121zM528 578q0 61 52 116l272 279h291l-387 -395l387 -398h-291l-272 277q-52 55 -52 121z" />
<glyph unicode="&#xac;" d="M96 582v223h1008v-633h-246v410h-762z" />
<glyph unicode="&#xad;" horiz-adv-x="876" d="M92 553v225h692v-225h-692z" />
<glyph unicode="&#xae;" horiz-adv-x="1910" d="M152 752q0 172 63.5 322t171.5 253.5t255.5 163t311.5 59.5q163 0 309.5 -58.5t255 -161.5t172.5 -253.5t64 -324.5q0 -171 -64 -321t-172 -255.5t-255.5 -166t-309.5 -60.5q-164 0 -311.5 60.5t-255.5 166t-171.5 255.5t-63.5 321zM346 752q0 -135 47 -251.5t128 -197 t193 -126.5t240 -46q168 0 306 78t218.5 220.5t80.5 322.5q0 184 -81 326t-218 217t-306 75q-172 0 -310 -76t-218 -217.5t-80 -324.5zM633 356v699q0 63 27 91t96 28h284q121 0 193 -66.5t72 -179.5q0 -90 -62 -174l-49 -68l147 -330h-208l-117 273h-185v-273h-198z M831 776h209l41 62q25 39 25 84q0 55 -31.5 78.5t-93.5 23.5h-150v-248z" />
<glyph unicode="&#xaf;" horiz-adv-x="1087" d="M172 1292v217h743v-217h-743z" />
<glyph unicode="&#xb0;" horiz-adv-x="974" d="M98 1159q0 175 109 290.5t289 115.5q179 0 284 -115t105 -291q0 -178 -107 -291.5t-286 -113.5q-181 0 -287.5 114t-106.5 291zM307 1159q0 -97 49.5 -157t137.5 -60q89 0 137.5 59.5t48.5 157.5q0 96 -50 154.5t-138 58.5q-89 0 -137 -58.5t-48 -154.5z" />
<glyph unicode="&#xb1;" d="M100 0v211h1006v-211h-1006zM100 594v221h375v305h248v-305h383v-221h-383v-293h-248v293h-375z" />
<glyph unicode="&#xb4;" horiz-adv-x="1110" d="M338 1333q0 49 41 88l151 142h365l-340 -277q-55 -45 -115 -45q-49 0 -75.5 28t-26.5 64z" />
<glyph unicode="&#xb5;" d="M117 -381v1505h280v-706q0 -187 191 -187q85 0 209 33v860h284v-903q0 -74 -35.5 -116.5t-107.5 -61.5q-168 -47 -363 -47q-138 0 -178 37v-414h-280z" />
<glyph unicode="&#xb6;" horiz-adv-x="1300" d="M70 987q0 113 32.5 209.5t96 170t165.5 115.5t232 42h596v-1905h-227v1698h-213v-1698h-234v838q-146 13 -249 88t-151 188t-48 254z" />
<glyph unicode="&#xb7;" horiz-adv-x="765" d="M223 745q0 72 44 115t120 43q75 0 118.5 -43t43.5 -115q0 -74 -43.5 -116.5t-118.5 -42.5q-76 0 -120 42.5t-44 116.5z" />
<glyph unicode="&#xb8;" horiz-adv-x="1087" d="M326 -362l36 116q89 -41 164 -41q70 0 70 47q0 36 -41 46.5t-131 7.5l-16 26l84 160h114l-43 -90q81 0 130.5 -37t49.5 -109q0 -79 -57 -125.5t-160 -46.5q-95 0 -200 46z" />
<glyph unicode="&#xba;" d="M182 1096q0 210 113.5 328t308.5 118t305.5 -117.5t110.5 -328.5q0 -209 -113.5 -328t-306.5 -119q-196 0 -307 118t-111 329zM418 1096q0 -134 48 -205.5t138 -71.5t137 72t47 205q0 132 -48.5 203t-139.5 71t-136.5 -70.5t-45.5 -203.5z" />
<glyph unicode="&#xbb;" horiz-adv-x="1187" d="M45 180l387 398l-387 395h291l272 -279q51 -54 51 -116q0 -67 -51 -121l-272 -277h-291zM502 180l383 398l-383 395h289l270 -279q51 -54 51 -116q0 -67 -51 -121l-270 -277h-289z" />
<glyph unicode="&#xbf;" horiz-adv-x="954" d="M55 -16q0 36 5 69.5t18 66.5t24.5 58.5t35.5 57t38.5 51t46.5 52t47 47t52.5 49.5t50.5 48v150l272 49v-135q0 -72 -14.5 -115t-61.5 -90l-139 -141q-54 -54 -75 -95t-21 -104q0 -70 42.5 -111t131.5 -41q102 0 254 44l100 28l41 -229l-100 -31q-158 -49 -324 -49 q-197 0 -310.5 99t-113.5 272zM346 1008q0 71 43.5 112t118.5 41q76 0 120 -41t44 -112t-44 -112.5t-120 -41.5q-75 0 -118.5 41.5t-43.5 112.5z" />
<glyph unicode="&#xc0;" horiz-adv-x="1470" d="M20 0l488 1384q54 156 237 156q182 0 234 -154l471 -1386h-340l-92 279h-567l-95 -279h-336zM428 1925h365l151 -141q41 -39 41 -88q0 -36 -26.5 -64t-75.5 -28q-60 0 -115 45zM516 524h438l-215 678z" />
<glyph unicode="&#xc1;" horiz-adv-x="1470" d="M20 0l488 1384q54 156 237 156q182 0 234 -154l471 -1386h-340l-92 279h-567l-95 -279h-336zM498 1696q0 49 41 88l151 141h365l-340 -276q-55 -45 -115 -45q-49 0 -75.5 28t-26.5 64zM516 524h438l-215 678z" />
<glyph unicode="&#xc2;" horiz-adv-x="1470" d="M20 0l488 1384q54 156 237 156q182 0 234 -154l471 -1386h-340l-92 279h-567l-95 -279h-336zM332 1622l260 268q60 60 153 60q97 0 154 -60l262 -268h-309l-107 143l-104 -143h-309zM516 524h438l-215 678z" />
<glyph unicode="&#xc3;" horiz-adv-x="1470" d="M20 0l488 1384q54 156 237 156q182 0 234 -154l471 -1386h-340l-92 279h-567l-95 -279h-336zM293 1706q44 124 124 183t171 59q94 0 164 -56l75 -53q40 -29 82 -29q39 0 70 29t61 98l150 -92q-44 -123 -123 -181t-170 -58q-93 0 -166 53l-74 53q-47 31 -84 31 q-78 0 -131 -127zM516 524h438l-215 678z" />
<glyph unicode="&#xc4;" horiz-adv-x="1470" d="M20 0l488 1384q54 156 237 156q182 0 234 -154l471 -1386h-340l-92 279h-567l-95 -279h-336zM360 1767q0 69 41 110.5t113 41.5t113 -41.5t41 -110.5t-41 -110t-113 -41t-113 41t-41 110zM516 524h438l-215 678zM827 1767q0 69 41.5 110.5t112.5 41.5t112.5 -41.5 t41.5 -110.5t-41 -110t-113 -41t-113 41t-41 110z" />
<glyph unicode="&#xc5;" horiz-adv-x="1470" d="M20 0l527 1491q-28 25 -45 65t-17 82q0 106 75.5 175t184.5 69q111 0 186 -68t75 -176q0 -44 -17.5 -84t-46.5 -65l508 -1489h-340l-92 279h-567l-95 -279h-336zM516 524h438l-215 678zM635 1638q0 -47 30 -77.5t80 -30.5q49 0 81 31t32 77q0 47 -31 77t-82 30 t-80.5 -30.5t-29.5 -76.5z" />
<glyph unicode="&#xc6;" horiz-adv-x="2162" d="M20 0l553 1360q66 164 275 164h1223v-252h-736v-375h652v-242h-652v-405h742v-250h-885q-89 0 -140 46t-51 126v107h-534l-107 -279h-340zM549 524h452v748h-170z" />
<glyph unicode="&#xc7;" horiz-adv-x="1396" d="M86 760q0 190 53 338.5t149 243t225.5 143.5t285.5 49q178 0 420 -74l118 -37l-43 -270l-123 37q-208 63 -335 63q-194 0 -298 -122.5t-104 -370.5q0 -249 105 -370.5t299 -121.5q156 0 333 60l123 41l43 -273l-118 -37q-244 -76 -422 -73q-159 0 -288 47.5t-224 141.5 t-147 243t-52 342zM578 -362l36 116q89 -41 164 -41q70 0 70 47q0 36 -41 46.5t-131 7.5l-17 26l84 160h115l-43 -90q81 0 130.5 -37t49.5 -109q0 -79 -57 -125.5t-160 -46.5q-95 0 -200 46z" />
<glyph unicode="&#xc8;" horiz-adv-x="1286" d="M123 178v1165q0 84 51 132.5t141 48.5h879v-252h-737v-375h645v-242h-645v-405h741v-250h-883q-91 0 -141.5 47.5t-50.5 130.5zM322 1925h364l152 -141q41 -39 41 -88q0 -36 -27 -64t-76 -28q-59 0 -114 45z" />
<glyph unicode="&#xc9;" horiz-adv-x="1286" d="M123 178v1165q0 84 51 132.5t141 48.5h879v-252h-737v-375h645v-242h-645v-405h741v-250h-883q-91 0 -141.5 47.5t-50.5 130.5zM475 1696q0 49 41 88l152 141h364l-340 -276q-55 -45 -114 -45q-49 0 -76 28t-27 64z" />
<glyph unicode="&#xca;" horiz-adv-x="1286" d="M123 178v1165q0 84 51 132.5t141 48.5h879v-252h-737v-375h645v-242h-645v-405h741v-250h-883q-91 0 -141.5 47.5t-50.5 130.5zM254 1622l260 268q60 60 154 60q96 0 153 -60l262 -268h-309l-106 143l-105 -143h-309z" />
<glyph unicode="&#xcb;" horiz-adv-x="1286" d="M123 178v1165q0 84 51 132.5t141 48.5h879v-252h-737v-375h645v-242h-645v-405h741v-250h-883q-91 0 -141.5 47.5t-50.5 130.5zM291 1765q0 70 41 111t112 41q72 0 113 -41.5t41 -110.5t-41 -110t-113 -41t-112.5 41t-40.5 110zM758 1765q0 70 41 111t112 41t112.5 -41.5 t41.5 -110.5t-41 -110t-113 -41q-71 0 -112 41t-41 110z" />
<glyph unicode="&#xcc;" horiz-adv-x="583" d="M-41 1923h365l151 -141q41 -39 41 -88q0 -36 -26.5 -64t-75.5 -28q-60 0 -115 45zM123 0v1524h338v-1524h-338z" />
<glyph unicode="&#xcd;" horiz-adv-x="583" d="M90 1694q0 49 41 88l152 141h364l-340 -276q-55 -45 -114 -45q-49 0 -76 28t-27 64zM123 0v1524h338v-1524h-338z" />
<glyph unicode="&#xce;" horiz-adv-x="583" d="M-123 1622l260 268q60 60 154 60q96 0 153 -60l263 -268h-310l-106 143l-105 -143h-309zM123 0v1524h338v-1524h-338z" />
<glyph unicode="&#xcf;" horiz-adv-x="583" d="M-92 1767q0 70 41 111t112 41t112.5 -41.5t41.5 -110.5t-41 -110t-113 -41q-71 0 -112 41t-41 110zM123 0v1524h338v-1524h-338zM375 1767q0 70 41 111t112 41q72 0 113 -41.5t41 -110.5t-41 -110t-113 -41t-112.5 41t-40.5 110z" />
<glyph unicode="&#xd0;" horiz-adv-x="1533" d="M20 680v188h123v410q0 118 42.5 182t150.5 64h395q330 0 523.5 -204t193.5 -562q0 -178 -52 -321.5t-147 -239t-228 -146.5t-294 -51h-391q-107 0 -150 62t-43 174v444h-123zM479 258h180q223 0 340 119t117 381q0 259 -121 384.5t-348 125.5h-168v-400h348v-188h-348 v-422z" />
<glyph unicode="&#xd1;" horiz-adv-x="1542" d="M123 0v1329q0 102 61.5 155.5t173.5 53.5q157 0 236 -141l532 -942v1069h293v-1329q0 -100 -62 -153.5t-173 -53.5q-152 0 -232 139l-538 944v-1071h-291zM342 1708q44 124 124 183t171 59q94 0 164 -56l76 -53q40 -29 81 -29q78 0 132 127l149 -92q-44 -123 -123 -181 t-170 -58q-93 0 -166 53l-73 53q-46 31 -84 31q-78 0 -131 -127z" />
<glyph unicode="&#xd2;" horiz-adv-x="1650" d="M86 758q0 182 54 329t152 244.5t235 150t302 52.5q335 0 534.5 -205t199.5 -571q0 -184 -54 -331t-152 -244t-235 -148t-303 -51q-335 0 -534 204.5t-199 569.5zM424 758q0 -254 107 -392.5t298 -138.5q188 0 292 138t104 393q0 252 -107 390t-299 138 q-189 0 -292 -137.5t-103 -390.5zM496 1923h364l152 -141q41 -39 41 -88q0 -36 -27 -64t-76 -28q-59 0 -114 45z" />
<glyph unicode="&#xd3;" horiz-adv-x="1650" d="M86 758q0 182 54 329t152 244.5t235 150t302 52.5q335 0 534.5 -205t199.5 -571q0 -184 -54 -331t-152 -244t-235 -148t-303 -51q-335 0 -534 204.5t-199 569.5zM424 758q0 -254 107 -392.5t298 -138.5q188 0 292 138t104 393q0 252 -107 390t-299 138 q-189 0 -292 -137.5t-103 -390.5zM629 1694q0 49 41 88l151 141h365l-340 -276q-55 -45 -115 -45q-49 0 -75.5 28t-26.5 64z" />
<glyph unicode="&#xd4;" horiz-adv-x="1650" d="M86 758q0 182 54 329t152 244.5t235 150t302 52.5q335 0 534.5 -205t199.5 -571q0 -184 -54 -331t-152 -244t-235 -148t-303 -51q-335 0 -534 204.5t-199 569.5zM420 1622l260 268q60 60 154 60q96 0 153 -60l262 -268h-309l-106 143l-105 -143h-309zM424 758 q0 -254 107 -392.5t298 -138.5q188 0 292 138t104 393q0 252 -107 390t-299 138q-189 0 -292 -137.5t-103 -390.5z" />
<glyph unicode="&#xd5;" horiz-adv-x="1650" d="M86 758q0 182 54 329t152 244.5t235 150t302 52.5q335 0 534.5 -205t199.5 -571q0 -184 -54 -331t-152 -244t-235 -148t-303 -51q-335 0 -534 204.5t-199 569.5zM389 1710q44 124 124 183t171 59q94 0 164 -56l76 -53q39 -28 82 -28q39 0 70 29t61 98l149 -93 q-44 -123 -123 -181t-170 -58q-93 0 -166 53l-73 53q-47 31 -84 31q-78 0 -131 -127zM424 758q0 -254 107 -392.5t298 -138.5q188 0 292 138t104 393q0 252 -107 390t-299 138q-189 0 -292 -137.5t-103 -390.5z" />
<glyph unicode="&#xd6;" horiz-adv-x="1650" d="M86 758q0 182 54 329t152 244.5t235 150t302 52.5q335 0 534.5 -205t199.5 -571q0 -184 -54 -331t-152 -244t-235 -148t-303 -51q-335 0 -534 204.5t-199 569.5zM424 758q0 -254 107 -392.5t298 -138.5q188 0 292 138t104 393q0 252 -107 390t-299 138 q-189 0 -292 -137.5t-103 -390.5zM440 1765q0 69 41 110.5t113 41.5t113 -41.5t41 -110.5t-41 -110t-113 -41t-113 41t-41 110zM907 1765q0 69 41.5 110.5t112.5 41.5t112 -41t41 -111q0 -69 -41 -110t-112 -41q-72 0 -113 41t-41 110z" />
<glyph unicode="&#xd8;" horiz-adv-x="1650" d="M86 758q0 182 54 329t152 244.5t235 150t302 52.5q148 0 275 -45l72 133h229l-121 -223q133 -99 206 -261.5t73 -379.5q0 -184 -54 -331t-152.5 -243t-235 -147t-302.5 -51q-160 0 -282 45l-74 -135h-232l125 227q-131 100 -200.5 260.5t-69.5 374.5zM424 758 q0 -106 23.5 -201.5t62.5 -153.5l467 854q-81 31 -158 31q-189 0 -292 -138t-103 -392zM664 262q72 -35 165 -35q188 0 292 138t104 393q0 111 -24 206t-66 152z" />
<glyph unicode="&#xd9;" horiz-adv-x="1492" d="M113 557v967h336v-977q0 -145 74.5 -220t221.5 -75t223 75t76 220v977h336v-967q0 -276 -164.5 -430t-470.5 -154t-469 153t-163 431zM381 1925h364l152 -141q41 -39 41 -88q0 -36 -26.5 -64t-75.5 -28q-60 0 -115 45z" />
<glyph unicode="&#xda;" horiz-adv-x="1492" d="M113 557v967h336v-977q0 -145 74.5 -220t221.5 -75t223 75t76 220v977h336v-967q0 -276 -164.5 -430t-470.5 -154t-469 153t-163 431zM571 1696q0 49 41 88l152 141h364l-340 -276q-55 -45 -114 -45q-49 0 -76 28t-27 64z" />
<glyph unicode="&#xdb;" horiz-adv-x="1492" d="M113 557v967h336v-977q0 -145 74.5 -220t221.5 -75t223 75t76 220v977h336v-967q0 -276 -164.5 -430t-470.5 -154t-469 153t-163 431zM334 1622l260 268q60 60 154 60q96 0 153 -60l262 -268h-309l-106 143l-105 -143h-309z" />
<glyph unicode="&#xdc;" horiz-adv-x="1492" d="M113 557v967h336v-977q0 -145 74.5 -220t221.5 -75t223 75t76 220v977h336v-967q0 -276 -164.5 -430t-470.5 -154t-469 153t-163 431zM369 1765q0 70 41 111t112 41q72 0 113 -41.5t41 -110.5t-41 -110t-113 -41t-112.5 41t-40.5 110zM836 1765q0 70 41 111t112 41 t112.5 -41.5t41.5 -110.5t-41 -110t-113 -41q-71 0 -112 41t-41 110z" />
<glyph unicode="&#xdd;" horiz-adv-x="1458" d="M14 1524h367l356 -606l342 606h363l-541 -891v-633h-338v629zM573 1696q0 49 41 88l152 141h364l-339 -276q-55 -45 -115 -45q-49 0 -76 28t-27 64z" />
<glyph unicode="&#xde;" horiz-adv-x="1343" d="M123 0v1524h328v-246h323q225 0 359.5 -131t134.5 -356q0 -226 -139.5 -357t-374.5 -131h-303v-303h-328zM451 549h276q110 0 174 64.5t64 179.5q0 241 -283 241h-231v-485z" />
<glyph unicode="&#xdf;" horiz-adv-x="1185" d="M113 0v1155q0 90 23 162.5t63 122t97 82.5t122.5 48t140.5 15q203 0 327 -102.5t124 -288.5q0 -159 -88 -283l-72 -102l115 -104q75 -69 112 -144t37 -170q0 -180 -118.5 -285.5t-323.5 -105.5h-150v227h137q88 0 135.5 49t47.5 130q0 48 -19 82.5t-61 78.5l-115 117 q-43 43 -48.5 99.5t26.5 111.5l69 121q43 72 43 170q0 64 -53 119t-123 55q-168 0 -168 -199v-1161h-280z" />
<glyph unicode="&#xe0;" horiz-adv-x="1236" d="M82 313q0 85 29 148.5t76 101.5t118 61.5t144 31.5t165 8h189v75q0 168 -199 168q-141 0 -334 -59l-112 -35l-37 221l104 33q222 70 408 70q98 0 175.5 -21t137.5 -66t92.5 -121t32.5 -179v-517l125 -75l-104 -185l-99 56q-68 39 -164 16l-67 -16q-164 -41 -287 -41 q-185 0 -289 86t-104 239zM289 1563h364l152 -142q41 -39 41 -88q0 -36 -27 -64t-76 -28q-59 0 -114 45zM358 324q0 -66 44.5 -100t125.5 -34q84 0 191 29l86 23v229h-240q-207 0 -207 -147z" />
<glyph unicode="&#xe1;" horiz-adv-x="1236" d="M82 313q0 85 29 148.5t76 101.5t118 61.5t144 31.5t165 8h189v75q0 168 -199 168q-141 0 -334 -59l-112 -35l-37 221l104 33q222 70 408 70q98 0 175.5 -21t137.5 -66t92.5 -121t32.5 -179v-517l125 -75l-104 -185l-99 56q-68 39 -164 16l-67 -16q-164 -41 -287 -41 q-185 0 -289 86t-104 239zM358 324q0 -66 44.5 -100t125.5 -34q84 0 191 29l86 23v229h-240q-207 0 -207 -147zM446 1333q0 49 41 88l152 142h365l-340 -277q-55 -45 -115 -45q-49 0 -76 28t-27 64z" />
<glyph unicode="&#xe2;" horiz-adv-x="1236" d="M82 313q0 85 29 148.5t76 101.5t118 61.5t144 31.5t165 8h189v75q0 168 -199 168q-141 0 -334 -59l-112 -35l-37 221l104 33q222 70 408 70q98 0 175.5 -21t137.5 -66t92.5 -121t32.5 -179v-517l125 -75l-104 -185l-99 56q-68 39 -164 16l-67 -16q-164 -41 -287 -41 q-185 0 -289 86t-104 239zM213 1239l260 268q60 60 154 60q96 0 153 -60l262 -268h-309l-106 143l-105 -143h-309zM358 324q0 -66 44.5 -100t125.5 -34q84 0 191 29l86 23v229h-240q-207 0 -207 -147z" />
<glyph unicode="&#xe3;" horiz-adv-x="1236" d="M82 313q0 85 29 148.5t76 101.5t118 61.5t144 31.5t165 8h189v75q0 168 -199 168q-141 0 -334 -59l-112 -35l-37 221l104 33q222 70 408 70q98 0 175.5 -21t137.5 -66t92.5 -121t32.5 -179v-517l125 -75l-104 -185l-99 56q-68 39 -164 16l-67 -16q-164 -41 -287 -41 q-185 0 -289 86t-104 239zM174 1333q44 124 124 183t171 59q95 0 164 -55l76 -54q39 -28 82 -28q39 0 70 29t61 98l149 -92q-44 -123 -123 -181.5t-170 -58.5q-93 0 -166 53l-73 53q-47 31 -84 31q-78 0 -131 -127zM358 324q0 -66 44.5 -100t125.5 -34q84 0 191 29l86 23 v229h-240q-207 0 -207 -147z" />
<glyph unicode="&#xe4;" horiz-adv-x="1236" d="M82 313q0 85 29 148.5t76 101.5t118 61.5t144 31.5t165 8h189v75q0 168 -199 168q-141 0 -334 -59l-112 -35l-37 221l104 33q222 70 408 70q98 0 175.5 -21t137.5 -66t92.5 -121t32.5 -179v-517l125 -75l-104 -185l-99 56q-68 39 -164 16l-67 -16q-164 -41 -287 -41 q-185 0 -289 86t-104 239zM244 1423q0 70 41 111t112 41t112.5 -41.5t41.5 -110.5t-41 -110t-113 -41q-71 0 -112 41t-41 110zM358 324q0 -66 44.5 -100t125.5 -34q84 0 191 29l86 23v229h-240q-207 0 -207 -147zM711 1423q0 70 41 111t112 41q72 0 113 -41.5t41 -110.5 t-41 -110t-113 -41t-112.5 41t-40.5 110z" />
<glyph unicode="&#xe5;" horiz-adv-x="1236" d="M82 313q0 85 29 148.5t76 101.5t118 61.5t144 31.5t165 8h189v75q0 168 -199 168q-141 0 -334 -59l-112 -35l-37 221l104 33q222 70 408 70q98 0 175.5 -21t137.5 -66t92.5 -121t32.5 -179v-517l125 -75l-104 -185l-99 56q-68 39 -164 16l-67 -16q-164 -41 -287 -41 q-185 0 -289 86t-104 239zM358 324q0 -66 44.5 -100t125.5 -34q84 0 191 29l86 23v229h-240q-207 0 -207 -147zM362 1446q0 107 74.5 174.5t186.5 67.5q111 0 185.5 -67.5t74.5 -174.5q0 -106 -75.5 -176t-184.5 -70t-185 70t-76 176zM512 1446q0 -48 30.5 -78.5t80.5 -30.5 q49 0 80.5 31t31.5 78q0 44 -31 75t-81 31q-51 0 -81 -30.5t-30 -75.5z" />
<glyph unicode="&#xe6;" horiz-adv-x="1918" d="M82 313q0 64 16.5 115.5t44 87.5t70 63t88.5 43t105.5 25.5t114.5 13t122 3.5h160v75q0 168 -199 168q-131 0 -332 -59l-114 -35l-37 221l108 35q210 68 406 68q109 0 197.5 -36t140.5 -104q136 142 358 142q242 0 379 -138.5t137 -412.5q0 -71 -40.5 -95t-127.5 -24 h-602q12 -128 96.5 -191t223.5 -63q125 0 289 51l110 35l37 -213l-109 -35q-204 -65 -362 -65q-153 -3 -287 61q-73 34 -139 17l-166 -37q-176 -38 -295 -41q-185 0 -289 86t-104 239zM358 324q0 -66 44.5 -100t125.5 -34q66 0 191 27l153 33q-51 89 -63 221h-244 q-207 0 -207 -147zM1077 662h494q0 121 -61.5 196.5t-186.5 75.5q-108 0 -173 -72.5t-73 -199.5z" />
<glyph unicode="&#xe7;" horiz-adv-x="1087" d="M82 561q0 276 143.5 426t384.5 150q135 0 322 -56l94 -28l-37 -232l-90 27q-172 51 -258 51q-270 0 -270 -338t270 -338q86 0 258 51l90 27l37 -231l-94 -29q-184 -55 -322 -55q-243 0 -385.5 146t-142.5 429zM379 -362l37 116q89 -41 164 -41q69 0 69 47q0 36 -41 46.5 t-131 7.5l-16 26l84 160h114l-43 -90q81 0 131 -37t50 -109q0 -79 -57 -125.5t-160 -46.5q-96 0 -201 46z" />
<glyph unicode="&#xe8;" horiz-adv-x="1198" d="M82 559q0 146 42.5 259t116 182t168 104t203.5 35q241 0 377.5 -138.5t136.5 -412.5q0 -61 -28.5 -90t-89.5 -29h-650q10 -127 91 -190.5t213 -63.5q138 0 305 51l108 35l37 -213l-108 -35q-204 -65 -363 -65q-259 0 -409 146t-150 425zM258 1563h365l151 -142 q41 -39 41 -88q0 -36 -26.5 -64t-75.5 -28q-60 0 -115 45zM356 662h496q0 120 -62 196t-186 76q-110 0 -175 -72.5t-73 -199.5z" />
<glyph unicode="&#xe9;" horiz-adv-x="1198" d="M82 559q0 146 42.5 259t116 182t168 104t203.5 35q241 0 377.5 -138.5t136.5 -412.5q0 -61 -28.5 -90t-89.5 -29h-650q10 -127 91 -190.5t213 -63.5q138 0 305 51l108 35l37 -213l-108 -35q-204 -65 -363 -65q-259 0 -409 146t-150 425zM356 662h496q0 120 -62 196 t-186 76q-110 0 -175 -72.5t-73 -199.5zM444 1333q0 49 41 88l152 142h364l-339 -277q-55 -45 -115 -45q-49 0 -76 28t-27 64z" />
<glyph unicode="&#xea;" horiz-adv-x="1198" d="M82 559q0 146 42.5 259t116 182t168 104t203.5 35q241 0 377.5 -138.5t136.5 -412.5q0 -61 -28.5 -90t-89.5 -29h-650q10 -127 91 -190.5t213 -63.5q138 0 305 51l108 35l37 -213l-108 -35q-204 -65 -363 -65q-259 0 -409 146t-150 425zM201 1239l260 268q60 60 153 60 q97 0 154 -60l262 -268h-309l-107 143l-104 -143h-309zM356 662h496q0 120 -62 196t-186 76q-110 0 -175 -72.5t-73 -199.5z" />
<glyph unicode="&#xeb;" horiz-adv-x="1198" d="M82 559q0 146 42.5 259t116 182t168 104t203.5 35q241 0 377.5 -138.5t136.5 -412.5q0 -61 -28.5 -90t-89.5 -29h-650q10 -127 91 -190.5t213 -63.5q138 0 305 51l108 35l37 -213l-108 -35q-204 -65 -363 -65q-259 0 -409 146t-150 425zM229 1423q0 69 41.5 110.5 t112.5 41.5t112.5 -41.5t41.5 -110.5t-41 -110t-113 -41t-113 41t-41 110zM356 662h496q0 120 -62 196t-186 76q-110 0 -175 -72.5t-73 -199.5zM696 1423q0 69 41 110.5t113 41.5t113 -41.5t41 -110.5t-41 -110t-113 -41t-113 41t-41 110z" />
<glyph unicode="&#xec;" horiz-adv-x="528" d="M-94 1563h364l152 -142q41 -39 41 -88q0 -36 -27 -64t-76 -28q-59 0 -114 45zM125 0v1124h278v-1124h-278z" />
<glyph unicode="&#xed;" horiz-adv-x="528" d="M51 1333q0 49 41 88l152 142h364l-340 -277q-55 -45 -114 -45q-49 0 -76 28t-27 64zM125 0v1124h278v-1124h-278z" />
<glyph unicode="&#xee;" horiz-adv-x="528" d="M-143 1239l260 268q60 60 153 60q97 0 154 -60l262 -268h-309l-107 143l-104 -143h-309zM125 0v1124h278v-1124h-278z" />
<glyph unicode="&#xef;" horiz-adv-x="528" d="M-119 1423q0 69 41.5 110.5t112.5 41.5t112 -41t41 -111q0 -69 -41 -110t-112 -41q-72 0 -113 41t-41 110zM125 0v1124h278v-1124h-278zM348 1423q0 69 41 110.5t113 41.5q71 0 112 -41t41 -111q0 -69 -40.5 -110t-112.5 -41t-113 41t-41 110z" />
<glyph unicode="&#xf0;" horiz-adv-x="1280" d="M92 532q0 150 54 265.5t167.5 184.5t272.5 69q53 0 110.5 -9.5t87 -17t97.5 -27.5v72q0 97 -37 172l-289 -147v168l186 92q-66 32 -163 32h-127v177h180q218 0 346 -93l215 109v-166l-109 -55q45 -69 63.5 -154t18.5 -205v-491q0 -237 -140 -377.5t-400 -140.5 q-254 0 -393.5 150t-139.5 392zM379 528q0 -154 65 -238.5t187 -84.5q248 0 248 309v283q-132 36 -238 39q-262 0 -262 -308z" />
<glyph unicode="&#xf1;" horiz-adv-x="1200" d="M117 0v905q0 72 35.5 113.5t107.5 62.5q196 54 365 54q235 0 345.5 -108t110.5 -296v-731h-280v707q0 186 -191 186q-85 0 -209 -33v-860h-284zM156 1333q44 124 124 183t171 59q94 0 163 -55l76 -54q39 -28 82 -28q39 0 70 29t61 98l150 -92q-44 -123 -123 -181.5 t-170 -58.5q-93 0 -166 53l-74 53q-47 31 -84 31q-78 0 -131 -127z" />
<glyph unicode="&#xf2;" horiz-adv-x="1263" d="M82 561q0 273 149 424.5t404 151.5q256 0 401.5 -151t145.5 -425q0 -272 -149 -422.5t-404 -150.5q-257 0 -402 150.5t-145 422.5zM311 1563h365l151 -142q41 -39 41 -88q0 -36 -26.5 -64t-75.5 -28q-60 0 -115 45zM369 561q0 -179 68 -271.5t198 -92.5q129 0 195.5 92.5 t66.5 271.5q0 177 -69.5 271t-198.5 94t-194.5 -94t-65.5 -271z" />
<glyph unicode="&#xf3;" horiz-adv-x="1263" d="M82 561q0 273 149 424.5t404 151.5q256 0 401.5 -151t145.5 -425q0 -272 -149 -422.5t-404 -150.5q-257 0 -402 150.5t-145 422.5zM369 561q0 -179 68 -271.5t198 -92.5q129 0 195.5 92.5t66.5 271.5q0 177 -69.5 271t-198.5 94t-194.5 -94t-65.5 -271zM420 1333 q0 49 41 88l151 142h365l-340 -277q-55 -45 -115 -45q-49 0 -75.5 28t-26.5 64z" />
<glyph unicode="&#xf4;" horiz-adv-x="1263" d="M82 561q0 273 149 424.5t404 151.5q256 0 401.5 -151t145.5 -425q0 -272 -149 -422.5t-404 -150.5q-257 0 -402 150.5t-145 422.5zM221 1239l260 268q60 60 154 60q96 0 153 -60l263 -268h-310l-106 143l-105 -143h-309zM369 561q0 -179 68 -271.5t198 -92.5 q129 0 195.5 92.5t66.5 271.5q0 177 -69.5 271t-198.5 94t-194.5 -94t-65.5 -271z" />
<glyph unicode="&#xf5;" horiz-adv-x="1263" d="M82 561q0 273 149 424.5t404 151.5q256 0 401.5 -151t145.5 -425q0 -272 -149 -422.5t-404 -150.5q-257 0 -402 150.5t-145 422.5zM199 1333q44 124 124 183t171 59q94 0 163 -55l76 -54q39 -28 82 -28q39 0 70 29t61 98l150 -92q-44 -123 -123 -181.5t-170 -58.5 q-93 0 -166 53l-74 53q-47 31 -84 31q-78 0 -131 -127zM369 561q0 -179 68 -271.5t198 -92.5q129 0 195.5 92.5t66.5 271.5q0 177 -69.5 271t-198.5 94t-194.5 -94t-65.5 -271z" />
<glyph unicode="&#xf6;" horiz-adv-x="1263" d="M82 561q0 273 149 424.5t404 151.5q256 0 401.5 -151t145.5 -425q0 -272 -149 -422.5t-404 -150.5q-257 0 -402 150.5t-145 422.5zM252 1423q0 69 41 110.5t113 41.5q71 0 112 -41t41 -111q0 -69 -40.5 -110t-112.5 -41t-113 41t-41 110zM369 561q0 -179 68 -271.5 t198 -92.5q129 0 195.5 92.5t66.5 271.5q0 177 -69.5 271t-198.5 94t-194.5 -94t-65.5 -271zM719 1423q0 70 41 111t112 41q72 0 113 -41.5t41 -110.5t-41 -110t-113 -41t-112.5 41t-40.5 110z" />
<glyph unicode="&#xf7;" d="M100 489v224h1006v-224h-1006zM440 195q0 66 43.5 106.5t116.5 40.5q74 0 117 -40t43 -107t-43 -106.5t-117 -39.5q-73 0 -116.5 40t-43.5 106zM440 1006q0 65 43.5 106t116.5 41q74 0 117 -40.5t43 -106.5q0 -67 -43 -107.5t-117 -40.5q-73 0 -116.5 41t-43.5 107z" />
<glyph unicode="&#xf8;" horiz-adv-x="1263" d="M82 561q0 273 149 424.5t404 151.5q100 0 192 -29l60 109h205l-105 -189q195 -150 195 -467q0 -272 -149 -422.5t-404 -150.5q-103 0 -189 24l-63 -118h-207l109 198q-197 149 -197 469zM358 561q0 -68 15.5 -133t40.5 -100l305 581q-44 19 -90 19q-131 0 -201 -95.5 t-70 -271.5zM549 211q35 -14 86 -14q132 0 202 93t70 271q0 65 -14.5 127.5t-38.5 99.5z" />
<glyph unicode="&#xf9;" horiz-adv-x="1200" d="M117 391v733h280v-706q0 -85 45.5 -137t145.5 -52q85 0 209 33v862h284v-905q0 -74 -35.5 -116.5t-107.5 -61.5q-183 -51 -363 -51q-235 0 -346.5 108t-111.5 293zM246 1563h364l152 -142q41 -39 41 -88q0 -36 -27 -64t-76 -28q-59 0 -114 45z" />
<glyph unicode="&#xfa;" horiz-adv-x="1200" d="M117 391v733h280v-706q0 -85 45.5 -137t145.5 -52q85 0 209 33v862h284v-905q0 -74 -35.5 -116.5t-107.5 -61.5q-183 -51 -363 -51q-235 0 -346.5 108t-111.5 293zM397 1333q0 49 41 88l152 142h364l-340 -277q-55 -45 -114 -45q-49 0 -76 28t-27 64z" />
<glyph unicode="&#xfb;" horiz-adv-x="1200" d="M117 391v733h280v-706q0 -85 45.5 -137t145.5 -52q85 0 209 33v862h284v-905q0 -74 -35.5 -116.5t-107.5 -61.5q-183 -51 -363 -51q-235 0 -346.5 108t-111.5 293zM188 1239l261 268q60 60 153 60q97 0 154 -60l262 -268h-309l-107 143l-104 -143h-310z" />
<glyph unicode="&#xfc;" horiz-adv-x="1200" d="M117 391v733h280v-706q0 -85 45.5 -137t145.5 -52q85 0 209 33v862h284v-905q0 -74 -35.5 -116.5t-107.5 -61.5q-183 -51 -363 -51q-235 0 -346.5 108t-111.5 293zM215 1423q0 69 41.5 110.5t112.5 41.5t112 -41t41 -111q0 -69 -41 -110t-112 -41q-72 0 -113 41t-41 110z M682 1423q0 69 41 110.5t113 41.5q71 0 112 -41t41 -111q0 -69 -40.5 -110t-112.5 -41t-113 41t-41 110z" />
<glyph unicode="&#xfd;" horiz-adv-x="1165" d="M35 1124h313l264 -802l230 802h297l-385 -1153q-30 -89 -63 -149.5t-79.5 -106t-109.5 -67t-148 -21.5q-111 0 -262 45l35 213q129 -37 197 -37q65 0 94 25.5t43 73.5l14 47zM442 1333q0 49 41 88l152 142h364l-340 -277q-55 -45 -114 -45q-49 0 -76 28t-27 64z" />
<glyph unicode="&#xfe;" horiz-adv-x="1228" d="M117 -381v1915l280 51v-491q128 36 252 36q249 0 373.5 -144.5t124.5 -418.5t-128.5 -423.5t-375.5 -149.5q-103 0 -246 45v-369zM397 260q137 -37 209 -37q137 0 199.5 86t62.5 254q0 166 -63.5 252t-200.5 86q-68 0 -207 -33v-608z" />
<glyph unicode="&#xff;" horiz-adv-x="1165" d="M35 1124h313l264 -802l230 802h297l-385 -1153q-30 -89 -63 -149.5t-79.5 -106t-109.5 -67t-148 -21.5q-111 0 -262 45l35 213q129 -37 197 -37q65 0 94 25.5t43 73.5l14 47zM223 1423q0 69 41.5 110.5t112.5 41.5t112 -41t41 -111q0 -69 -41 -110t-112 -41 q-72 0 -113 41t-41 110zM690 1423q0 69 41 110.5t113 41.5q71 0 112 -41t41 -111q0 -69 -40.5 -110t-112.5 -41t-113 41t-41 110z" />
<glyph unicode="&#x152;" horiz-adv-x="2217" d="M86 758q0 358 193.5 562t523.5 204h1323v-252h-735v-375h645v-242h-645v-405h741v-250h-1325q-161 0 -294 51t-228 146.5t-147 239t-52 321.5zM418 758q0 -242 103 -371t292 -129h242v1010h-228q-194 0 -301.5 -136t-107.5 -374z" />
<glyph unicode="&#x153;" horiz-adv-x="2013" d="M82 561q0 273 149 424.5t404 151.5q270 0 403 -181q66 91 166.5 137t222.5 46q241 0 378 -138.5t137 -412.5q0 -119 -119 -119h-649q10 -127 90.5 -190.5t212.5 -63.5q147 0 305 51l108 35l37 -213l-108 -35q-204 -65 -363 -65q-286 0 -420 180q-133 -180 -407 -180 q-257 0 -402 150.5t-145 422.5zM369 561q0 -179 68 -271.5t198 -92.5q129 0 195.5 92.5t66.5 271.5q0 177 -69.5 271t-198.5 94t-194.5 -94t-65.5 -271zM1171 662h496q0 120 -62 196t-186 76q-110 0 -175 -72.5t-73 -199.5z" />
<glyph unicode="&#x178;" horiz-adv-x="1458" d="M14 1524h367l356 -606l342 606h363l-541 -891v-633h-338v629zM356 1767q0 69 41 110.5t113 41.5t113 -41.5t41 -110.5t-41 -110t-113 -41t-113 41t-41 110zM823 1767q0 69 41.5 110.5t112.5 41.5t112 -41t41 -111q0 -69 -41 -110t-112 -41q-72 0 -113 41t-41 110z" />
<glyph unicode="&#x2c6;" horiz-adv-x="1087" d="M162 1239l260 268q60 60 153 60q97 0 154 -60l262 -268h-309l-107 143l-104 -143h-309z" />
<glyph unicode="&#x2dc;" horiz-adv-x="1087" d="M96 1333q44 124 124 183t171 59q95 0 164 -55l76 -54q39 -28 82 -28q39 0 70 29t61 98l149 -92q-44 -123 -123 -181.5t-170 -58.5q-92 0 -165 53l-74 53q-47 31 -84 31q-78 0 -131 -127z" />
<glyph unicode="&#x2000;" horiz-adv-x="976" />
<glyph unicode="&#x2001;" horiz-adv-x="1952" />
<glyph unicode="&#x2002;" horiz-adv-x="976" />
<glyph unicode="&#x2003;" horiz-adv-x="1952" />
<glyph unicode="&#x2004;" horiz-adv-x="650" />
<glyph unicode="&#x2005;" horiz-adv-x="488" />
<glyph unicode="&#x2006;" horiz-adv-x="325" />
<glyph unicode="&#x2007;" horiz-adv-x="325" />
<glyph unicode="&#x2008;" horiz-adv-x="244" />
<glyph unicode="&#x2009;" horiz-adv-x="390" />
<glyph unicode="&#x200a;" horiz-adv-x="108" />
<glyph unicode="&#x2010;" horiz-adv-x="876" d="M92 553v225h692v-225h-692z" />
<glyph unicode="&#x2011;" horiz-adv-x="876" d="M92 553v225h692v-225h-692z" />
<glyph unicode="&#x2012;" horiz-adv-x="876" d="M92 553v225h692v-225h-692z" />
<glyph unicode="&#x2013;" d="M92 553v223h1024v-223h-1024z" />
<glyph unicode="&#x2014;" horiz-adv-x="2048" d="M123 553v221h1802v-221h-1802z" />
<glyph unicode="&#x2018;" horiz-adv-x="495" d="M57 1090l109 376q26 95 137 95q75 0 107 -43t16 -107l-78 -321h-291z" />
<glyph unicode="&#x2019;" horiz-adv-x="495" d="M68 1241l77 322h291l-108 -377q-25 -94 -138 -94q-75 0 -106.5 42.5t-15.5 106.5z" />
<glyph unicode="&#x201a;" horiz-adv-x="495" d="M68 -37l77 322h291l-108 -377q-25 -94 -138 -94q-75 0 -106.5 42.5t-15.5 106.5z" />
<glyph unicode="&#x201c;" horiz-adv-x="876" d="M45 1090l109 376q29 95 127 95q75 0 102.5 -42t11.5 -108l-78 -321h-272zM446 1090l109 376q14 47 43.5 71t83.5 24q76 0 103.5 -42t11.5 -108l-78 -321h-273z" />
<glyph unicode="&#x201d;" horiz-adv-x="876" d="M66 1241l77 322h273l-109 -377q-14 -47 -43.5 -70.5t-83.5 -23.5q-75 0 -102.5 41.5t-11.5 107.5zM467 1241l78 322h272l-108 -377q-29 -94 -127 -94q-76 0 -103.5 41.5t-11.5 107.5z" />
<glyph unicode="&#x201e;" horiz-adv-x="876" d="M66 -37l77 322h273l-109 -377q-14 -47 -43.5 -70.5t-83.5 -23.5q-75 0 -102.5 41.5t-11.5 107.5zM467 -37l78 322h272l-108 -377q-29 -94 -127 -94q-76 0 -103.5 41.5t-11.5 107.5z" />
<glyph unicode="&#x2022;" horiz-adv-x="929" d="M160 678q0 156 81.5 243t223.5 87q143 0 225 -87t82 -243t-82 -243t-225 -87q-142 0 -223.5 87t-81.5 243z" />
<glyph unicode="&#x2026;" horiz-adv-x="1488" d="M86 139q0 72 44 115t120 43q75 0 118.5 -43t43.5 -115q0 -74 -43.5 -116.5t-118.5 -42.5q-76 0 -120 42.5t-44 116.5zM584 139q0 73 42.5 115.5t118.5 42.5t119 -42.5t43 -115.5q0 -74 -43 -116.5t-119 -42.5t-118.5 42.5t-42.5 116.5zM1079 139q0 72 44 115t120 43 q75 0 118.5 -43t43.5 -115q0 -74 -43.5 -116.5t-118.5 -42.5q-76 0 -120 42.5t-44 116.5z" />
<glyph unicode="&#x202f;" horiz-adv-x="390" />
<glyph unicode="&#x2039;" horiz-adv-x="755" d="M74 578q0 62 51 116l274 279h312l-383 -395l383 -398h-312l-274 277q-51 54 -51 121z" />
<glyph unicode="&#x203a;" horiz-adv-x="755" d="M45 180l383 398l-383 395h311l275 -279q51 -54 51 -116q0 -67 -51 -121l-275 -277h-311z" />
<glyph unicode="&#x205f;" horiz-adv-x="488" />
<glyph unicode="&#x20ac;" d="M53 514v188h140v125h-140v187h144q10 252 156 389t378 137q145 0 322 -55l94 -29l-37 -233l-96 28q-152 47 -254 47q-262 0 -271 -284h412v-187h-418v-125h418v-188h-414q4 -146 74.5 -217.5t198.5 -71.5q104 0 256 47l94 29l37 -233l-88 -27q-180 -55 -328 -55 q-233 0 -379 137.5t-155 390.5h-144z" />
<glyph unicode="&#x2122;" horiz-adv-x="1859" d="M90 1362v162h680v-162h-235v-690h-209v690h-236zM872 672v737q0 59 40.5 92t109.5 33q132 0 162 -113l127 -450l135 456q29 103 162 103q66 0 103.5 -32.5t37.5 -86.5v-739h-184v565l-152 -498q-17 -71 -106 -71q-87 0 -107 71l-147 496v-563h-181z" />
<glyph unicode="&#x25fc;" horiz-adv-x="1126" d="M0 0v1126h1126v-1126h-1126z" />
<glyph unicode="&#xfb01;" horiz-adv-x="1345" d="M35 897v217h162v84q0 182 100 275.5t283 93.5q101 0 274 -43l-35 -215q-136 34 -194 34q-83 0 -117.5 -38t-34.5 -129v-62h750v-1114h-283v897h-467v-897h-276v897h-162zM920 1430q0 70 42.5 110.5t118.5 40.5t119 -40.5t43 -110.5q0 -71 -43 -112.5t-119 -41.5 t-118.5 41.5t-42.5 112.5z" />
<glyph unicode="&#xfb02;" horiz-adv-x="1345" d="M35 897v217h162v84q0 182 103.5 277.5t293.5 95.5q138 0 348 -45l287 57v-1583h-289v1313q-182 33 -297 33q-93 0 -131.5 -39t-38.5 -131v-62h326v-217h-326v-897h-276v897h-162z" />
</font>
</defs>
</svg>
